<?xml version="1.0" standalone="no"?>
<!DOCTYPE svg PUBLIC "-//W3C//DTD SVG 20010904//EN"
 "http://www.w3.org/TR/2001/REC-SVG-20010904/DTD/svg10.dtd">
<svg version="1.0" xmlns="http://www.w3.org/2000/svg"
 width="1182.000000pt" height="1280.000000pt" viewBox="0 0 1182.000000 1280.000000"
 preserveAspectRatio="xMidYMid meet">
<g transform="translate(0.000000,1280.000000) scale(0.100000,-0.100000)"
fill="#000000" stroke="none">
<path d="M7710 12687 c-84 -77 -232 -194 -386 -302 -77 -54 -206 -146 -289
-204 -501 -354 -709 -596 -782 -908 -16 -72 -21 -244 -11 -368 3 -29 1 -30
-46 -36 -34 -4 -54 -12 -67 -28 -21 -26 -47 -104 -56 -171 -7 -51 -59 -130
-151 -232 -111 -123 -171 -206 -311 -431 -77 -126 -141 -232 -141 -236 0 -5
-8 -19 -19 -32 -10 -13 -44 -73 -75 -132 -43 -83 -54 -112 -46 -122 9 -11 -5
-38 -61 -122 -39 -59 -75 -112 -79 -116 -4 -5 -43 -2 -86 7 -275 52 -1036 45
-1524 -14 -405 -49 -883 -174 -1303 -342 -696 -277 -1335 -770 -1679 -1298
-323 -494 -410 -1069 -253 -1667 74 -280 187 -533 317 -708 97 -131 262 -303
373 -390 263 -205 597 -372 955 -475 196 -57 193 -56 184 -83 -3 -12 -89 -160
-190 -328 -101 -169 -261 -450 -355 -625 -94 -176 -289 -535 -434 -799 -398
-728 -527 -970 -773 -1450 -250 -490 -299 -594 -348 -741 -32 -97 -79 -302
-71 -310 8 -8 314 350 484 566 288 367 485 648 1079 1540 265 399 540 811 611
915 70 105 254 390 407 635 153 245 289 455 301 468 l21 23 410 -56 c421 -57
572 -81 754 -116 137 -27 303 -68 313 -78 5 -5 -1 -35 -12 -67 -10 -32 -25
-111 -31 -174 -13 -127 -41 -229 -67 -252 -10 -8 -51 -25 -92 -38 -134 -42
-298 -156 -442 -308 -84 -87 -137 -163 -179 -254 -48 -105 -49 -96 33 -195
132 -158 270 -277 404 -349 37 -21 77 -45 88 -54 24 -20 583 -283 745 -350
539 -224 1175 -390 1795 -470 489 -63 1132 -68 1690 -14 1067 102 1891 422
2550 990 539 464 830 965 925 1590 28 187 36 369 21 502 -43 375 -101 600
-253 977 -190 472 -397 791 -789 1214 -651 704 -1518 1257 -2727 1740 -248 99
-578 219 -977 355 -170 58 -434 149 -586 201 -253 87 -374 118 -531 140 -27 3
-48 11 -48 16 0 18 132 264 378 704 129 231 238 425 242 430 8 10 48 84 125
230 23 44 47 94 53 112 8 26 26 39 103 79 243 126 426 315 549 569 95 194 131
317 225 770 64 308 109 484 161 621 19 53 34 97 32 99 -2 2 -28 -20 -58 -48z
m-4316 -6196 c21 -5 42 -13 47 -18 8 -8 -375 -649 -434 -726 -15 -20 -34 -37
-41 -37 -31 0 -132 173 -161 274 -27 92 -17 206 24 289 77 159 201 225 421
226 58 0 122 -4 144 -8z m789 -448 c152 -159 213 -283 205 -419 -11 -170 -120
-292 -314 -350 -107 -33 -395 -20 -449 20 -15 11 -9 25 54 129 172 285 424
677 436 677 7 0 37 -26 68 -57z"/>
</g>
</svg>
